# xmcd
#
# Track frame offsets:
#	150
#	16550
#	31150
#	47283
#	68593
#	84628
#	98688
#	114623
#	129743
#
# Disc length: 2226 seconds
#
# Revision: 2
# Processed by: cddbd v1.5.1PL0 Copyright (c) Steve Scherf et al.
# Submitted via: MusicWizard 7.1.1b
#
DISCID=6008b009
DTITLE=Kris Kristofferson - Who's To Bless And Who's To Blame
DYEAR=1996
DGENRE=Country
TTITLE0=The Year 2000 Minus 25
TTITLE1=If It's All The Same To You
TTITLE2=Easy, Come On
TTITLE3=Stallion
TTITLE4=Rocket To Stardom
TTITLE5=Stranger
TTITLE6=Who's To Bless And Who's To Blame
TTITLE7=Don't Cuss The Fiddle
TTITLE8=Silver (The Hunger)
EXTD=(p)1975 CBS/Monument \n(c)1996 SSP A 26174\nupc 0798926174209
EXTT0=
EXTT1=
EXTT2=
EXTT3=
EXTT4=
EXTT5=
EXTT6=
EXTT7=
EXTT8=
PLAYORDER=
